# xmcd
# Copyright (C) 1995-1998 Ti Kan
#
# Track frame offsets:
#       150
#       16819
#       38179
#       52958
#       74175
#       89470
#       103752
#       126211
#       140026
#       158563
#       175130
#       198767
#
# Disc length: 3169 seconds
#
# Revision: 0
# Processed by: cddbd v1.4PL0 Copyright (c) Steve Scherf et al.
# Submitted via: CD-Transfer v1.0
#
DISCID=a40c5f0c
DTITLE=Baeng - Vermisse Di
DYEAR=2002
DGENRE=
TTITLE0=Meitschi Chumm
TTITLE1=Magischi Nacht
TTITLE2=S Git So Täg
TTITLE3=Summer
TTITLE4=Vermisse Di
TTITLE5=Verlore
TTITLE6=We Mir Wei
TTITLE7=Grossi Wält
TTITLE8=Der Schlüssel Zu Dym Härz
TTITLE9=Cherze
TTITLE10=Häb Echli Vertroue I Mi
TTITLE11=Schöni U Fyni
EXTD=
EXTT0=
EXTT1=
EXTT2=
EXTT3=
EXTT4=
EXTT5=
EXTT6=
EXTT7=
EXTT8=
EXTT9=
EXTT10=
EXTT11=
PLAYORDER=
